<svg xmlns:xlink="http://www.w3.org/1999/xlink" id="SvgjsSvg1011" xmlns="http://www.w3.org/2000/svg"
     version="1.1" width="16" height="24" viewBox="0 0 16 24">
    <defs id="SvgjsDefs1012"></defs>
    <path id="SvgjsPath1013"
          d="M1084.81 1116.13C1088.25 1116.13 1091.04 1113.49 1091.04 1110.24C1091.04 1106.99 1088.25 1104.35 1084.81 1104.35C1081.37 1104.35 1078.58 1106.99 1078.58 1110.24C1078.58 1113.49 1081.37 1116.13 1084.81 1116.13ZM1084.81 1107.34C1086.5 1107.34 1087.87 1108.6399999999999 1087.87 1110.24C1087.87 1111.84 1086.5 1113.14 1084.81 1113.14C1083.12 1113.14 1081.75 1111.8400000000001 1081.75 1110.24C1081.75 1108.64 1083.12 1107.34 1084.81 1107.34ZM1090.35 1119.53C1089.02 1120.33 1087.2099999999998 1120.6299999999999 1086.02 1120.75L1087.01 1121.69L1090.68 1125.16C1091.24 1125.68 1091.24 1126.5400000000002 1090.68 1127.0700000000002L1090.51 1127.2300000000002C1089.96 1127.7500000000002 1089.05 1127.7500000000002 1088.5 1127.2300000000002C1087.56 1126.3400000000001 1086.22 1125.0700000000002 1084.83 1123.7600000000002L1081.1599999999999 1127.2300000000002C1080.6 1127.7500000000002 1079.6999999999998 1127.7500000000002 1079.1399999999999 1127.2300000000002L1078.9699999999998 1127.0700000000002C1078.4099999999999 1126.5400000000002 1078.4099999999999 1125.68 1078.9699999999998 1125.16C1079.8999999999999 1124.28 1081.2499999999998 1123 1082.6399999999999 1121.69L1083.6299999999999 1120.75C1082.4399999999998 1120.64 1080.61 1120.34 1079.27 1119.53C1077.71 1118.58 1077.02 1118.01 1077.6299999999999 1116.85C1077.9799999999998 1116.1799999999998 1078.9599999999998 1115.6299999999999 1080.2499999999998 1116.59C1081.9999999999998 1117.8899999999999 1084.8099999999997 1117.8899999999999 1084.8099999999997 1117.8899999999999C1084.8099999999997 1117.8899999999999 1087.6199999999997 1117.8899999999999 1089.3699999999997 1116.59C1090.6599999999996 1115.6299999999999 1091.6399999999996 1116.1799999999998 1091.9899999999996 1116.85C1092.5999999999995 1118.01 1091.9099999999996 1118.58 1090.3499999999995 1119.53Z "
          fill="#8c959e" fill-opacity="1" transform="matrix(1,0,0,1,-1077,-1104)"></path>
</svg>
