<svg xmlns:xlink="http://www.w3.org/1999/xlink" id="SvgjsSvg1023" xmlns="http://www.w3.org/2000/svg"
     version="1.1" width="24" height="20" viewBox="0 0 24 20">
    <defs id="SvgjsDefs1024"></defs>
    <path id="SvgjsPath1025"
          d="M970.624 1107.28C969.726 1107.8 968.732 1108.18 967.674 1108.3899999999999C966.828 1107.4999999999998 965.622 1106.9399999999998 964.287 1106.9399999999998C961.7230000000001 1106.9399999999998 959.645 1108.9899999999998 959.645 1111.5199999999998C959.645 1111.8699999999997 959.686 1112.2199999999998 959.765 1112.5599999999997C955.908 1112.3699999999997 952.4879999999999 1110.5399999999997 950.198 1107.7799999999997C949.799 1108.4499999999998 949.571 1109.2399999999998 949.571 1110.0799999999997C949.571 1111.6599999999996 950.3910000000001 1113.0599999999997 951.635 1113.8799999999997C950.874 1113.8599999999997 950.159 1113.6499999999996 949.533 1113.3099999999997V1113.3699999999997C949.533 1115.5799999999997 951.133 1117.4299999999996 953.255 1117.8499999999997C952.867 1117.9599999999996 952.457 1118.0099999999998 952.033 1118.0099999999998C951.7330000000001 1118.0099999999998 951.443 1117.9799999999998 951.159 1117.9299999999998C951.75 1119.7499999999998 953.463 1121.07 955.494 1121.11C953.9060000000001 1122.34 951.904 1123.07 949.73 1123.07C949.355 1123.07 948.985 1123.04 948.6220000000001 1123C950.677 1124.3 953.1150000000001 1125.06 955.7370000000001 1125.06C964.2750000000001 1125.06 968.9430000000001 1118.09 968.9430000000001 1112.04L968.9280000000001 1111.45C969.8380000000001 1110.81 970.6260000000001 1110 971.2480000000002 1109.0800000000002C970.4150000000002 1109.45 969.5220000000002 1109.69 968.5830000000002 1109.8100000000002C969.5410000000002 1109.2400000000002 970.2760000000002 1108.3400000000001 970.6240000000003 1107.2800000000002Z "
          fill="#8c959e" fill-opacity="1" transform="matrix(1,0,0,1,-948,-1106)"></path>
</svg>
