<svg xmlns="http://www.w3.org/2000/svg" width="41" height="41" viewBox="0 0 41 41"><path fill="#ffc363" d="M20.5 41c-5.12 0-9.8-1.88-13.4-4.98l-.03.04-2.13-2.12.04-.05A20.5 20.5 0 0 1 33.9 5l.04-.04 2.12 2.12-.04.04A20.5 20.5 0 0 1 20.5 41zm0-3c4.29 0 8.22-1.55 11.27-4.12L20.5 22.62 9.24 33.89A17.42 17.42 0 0 0 20.5 38c9.65 0 0 0 0 0zM38 20.5c0-4.28-1.55-8.21-4.11-11.26L22.62 20.5l11.26 11.26A17.42 17.42 0 0 0 38 20.5zM20.5 3c-4.29 0-8.22 1.55-11.27 4.12L20.5 18.38 31.77 7.12A17.42 17.42 0 0 0 20.5 3zM3 20.5c0 4.28 1.55 8.22 4.11 11.26L18.38 20.5 7.12 9.23A17.42 17.42 0 0 0 3 20.5z"/></svg>