<svg xmlns:xlink="http://www.w3.org/1999/xlink" id="SvgjsSvg1020" xmlns="http://www.w3.org/2000/svg"
     version="1.1" width="15" height="27" viewBox="0 0 15 27">
    <defs id="SvgjsDefs1021"></defs>
    <path id="SvgjsPath1022"
          d="M841.192 1103.5L837.853 1103.49C834.101 1103.49 831.6759999999999 1105.99 831.6759999999999 1109.86V1112.8H828.319C828.0279999999999 1112.8 827.794 1113.03 827.794 1113.32V1117.58C827.794 1117.87 828.029 1118.11 828.319 1118.11H831.6759999999999V1128.84C831.6759999999999 1129.1399999999999 831.911 1129.37 832.2009999999999 1129.37H836.5819999999999C836.8719999999998 1129.37 837.1069999999999 1129.1399999999999 837.1069999999999 1128.84V1118.11H841.0329999999999C841.3229999999999 1118.11 841.5579999999999 1117.87 841.5579999999999 1117.58L841.5599999999998 1113.32C841.5599999999998 1113.1799999999998 841.5039999999998 1113.05 841.4059999999998 1112.95C841.3069999999998 1112.8500000000001 841.1739999999999 1112.8 841.0339999999999 1112.8H837.1079999999998V1110.31C837.1079999999998 1109.11 837.3909999999998 1108.5 838.9419999999998 1108.5H841.1919999999998C841.4819999999997 1108.5 841.7159999999998 1108.27 841.7159999999998 1107.97V1104.02C841.7159999999998 1103.73 841.4819999999997 1103.5 841.1919999999998 1103.5Z "
          fill="#8c959e" fill-opacity="1" transform="matrix(1,0,0,1,-827,-1103)"></path>
</svg>
