<svg xmlns:xlink="http://www.w3.org/1999/xlink" id="SvgjsSvg1014" xmlns="http://www.w3.org/2000/svg"
     version="1.1" width="23" height="22" viewBox="0 0 23 22">
    <defs id="SvgjsDefs1015"></defs>
    <path id="SvgjsPath1016"
          d="M1027.03 1105.22H1017.28C1013.97 1105.22 1011.28 1107.89 1011.28 1111.17V1120.8300000000002C1011.28 1124.1100000000001 1013.97 1126.7800000000002 1017.28 1126.7800000000002H1027.03C1030.34 1126.7800000000002 1033.03 1124.1100000000001 1033.03 1120.8300000000002V1111.17C1033.03 1107.89 1030.34 1105.22 1027.03 1105.22ZM1027.03 1124.87H1017.28C1015.03 1124.87 1013.2099999999999 1123.06 1013.2099999999999 1120.83V1111.1699999999998C1013.2099999999999 1108.9399999999998 1015.03 1107.1299999999999 1017.28 1107.1299999999999H1027.03C1029.27 1107.1299999999999 1031.1 1108.9399999999998 1031.1 1111.1699999999998V1120.83C1031.1 1123.06 1029.27 1124.87 1027.03 1124.87ZM1022.15 1110.44C1019.06 1110.44 1016.55 1112.94 1016.55 1116C1016.55 1119.06 1019.06 1121.56 1022.15 1121.56C1025.25 1121.56 1027.76 1119.06 1027.76 1116C1027.76 1112.94 1025.25 1110.44 1022.15 1110.44ZM1022.15 1119.64C1020.13 1119.64 1018.48 1118.01 1018.48 1116C1018.48 1113.99 1020.13 1112.36 1022.15 1112.36C1024.18 1112.36 1025.83 1113.99 1025.83 1116C1025.83 1118.01 1024.1799999999998 1119.64 1022.15 1119.64ZM1028 1108.82C1027.62 1108.82 1027.26 1108.97 1027 1109.23C1026.73 1109.49 1026.58 1109.85 1026.58 1110.22C1026.58 1110.59 1026.73 1110.95 1027 1111.22C1027.26 1111.48 1027.62 1111.63 1028 1111.63C1028.37 1111.63 1028.73 1111.48 1029 1111.22C1029.26 1110.95 1029.41 1110.59 1029.41 1110.22C1029.41 1109.8500000000001 1029.26 1109.49 1029 1109.23C1028.73 1108.97 1028.37 1108.82 1028 1108.82Z "
          fill="#e2e3d1" fill-opacity="1" transform="matrix(1,0,0,1,-1011,-1105)"></path>
</svg>
