<?xml version="1.0" encoding="utf-8"?>

<svg version="1.1" id="Layer_1" xmlns="http://www.w3.org/2000/svg" xmlns:xlink="http://www.w3.org/1999/xlink" x="0px" y="0px"
     viewBox="0 0 117 120" style="enable-background:new 0 0 117 120;" xml:space="preserve">
<style type="text/css">
    .st0{fill:#FCFAFA;}
</style>
<path class="st0" d="M58.5,3.8c-30.9,0-56,25.1-56,56c0,30.9,25.1,56,56,56c30.9,0,56-25.1,56-56C114.5,28.9,89.4,3.8,58.5,3.8z
     M58.5,112.3C29.6,112.3,6,88.7,6,59.8C6,30.8,29.6,7.3,58.5,7.3c28.9,0,52.5,23.6,52.5,52.5C111,88.7,87.4,112.3,58.5,112.3z"/>
<polygon class="st0" points="45.3,44.6 45.3,74.9 71.7,59.7 "/>
</svg>
