<svg xmlns:xlink="http://www.w3.org/1999/xlink" id="SvgjsSvg1017" xmlns="http://www.w3.org/2000/svg"
     version="1.1" width="28" height="17" viewBox="0 0 28 17">
    <defs id="SvgjsDefs1018"></defs>
    <path id="SvgjsPath1019"
          d="M907.574 1118.55C908.4689999999999 1119.44 909.414 1120.28 910.216 1121.26C910.571 1121.69 910.9060000000001 1122.14 911.163 1122.65C911.527 1123.3600000000001 911.198 1124.15 910.565 1124.2L906.6350000000001 1124.19C905.6220000000001 1124.28 904.8130000000001 1123.8600000000001 904.1330000000002 1123.16C903.5890000000002 1122.5900000000001 903.0850000000002 1121.99 902.5620000000001 1121.41C902.3470000000001 1121.17 902.1230000000002 1120.95 901.8550000000001 1120.77C901.3180000000001 1120.42 900.8520000000001 1120.52 900.5460000000002 1121.09C900.2340000000002 1121.6699999999998 900.1630000000001 1122.32 900.1320000000002 1122.9599999999998C900.0900000000001 1123.8999999999999 899.8100000000002 1124.1499999999999 898.8810000000002 1124.1899999999998C896.8940000000002 1124.2899999999997 895.0080000000002 1123.9799999999998 893.2570000000002 1122.9599999999998C891.7130000000002 1122.0599999999997 890.5150000000002 1120.7899999999997 889.4730000000002 1119.36C887.4440000000002 1116.56 885.8900000000002 1113.4799999999998 884.4930000000002 1110.32C884.1790000000002 1109.61 884.4090000000002 1109.22 885.1810000000002 1109.21C886.4630000000002 1109.18 887.7450000000001 1109.19 889.0280000000001 1109.21C889.5490000000001 1109.22 889.8940000000001 1109.52 890.0960000000001 1110.02C890.7890000000001 1111.76 891.6380000000001 1113.41 892.7030000000001 1114.94C892.9870000000001 1115.3500000000001 893.2760000000001 1115.76 893.6880000000001 1116.04C894.1440000000001 1116.36 894.4910000000001 1116.26 894.7060000000001 1115.74C894.8420000000001 1115.41 894.9010000000002 1115.06 894.9320000000001 1114.71C895.0330000000001 1113.5 895.0470000000001 1112.29 894.8690000000001 1111.0900000000001C894.7590000000001 1110.3400000000001 894.3440000000002 1109.8500000000001 893.6080000000002 1109.71C893.2320000000002 1109.64 893.2880000000001 1109.5 893.4700000000001 1109.28C893.7860000000002 1108.8999999999999 894.0830000000002 1108.67 894.6750000000002 1108.67H899.1170000000002C899.8160000000001 1108.8100000000002 899.9710000000002 1109.13 900.0670000000002 1109.8400000000001L900.0710000000003 1114.8700000000001C900.0630000000002 1115.14 900.2070000000002 1115.97 900.6970000000002 1116.15C901.0900000000003 1116.2800000000002 901.3490000000003 1115.96 901.5840000000002 1115.71C902.6480000000001 1114.56 903.4070000000002 1113.2 904.0850000000002 1111.79C904.3860000000002 1111.18 904.6450000000001 1110.53 904.8950000000001 1109.8899999999999C905.0810000000001 1109.4199999999998 905.373 1109.1799999999998 905.8990000000001 1109.1899999999998L910.1740000000001 1109.1999999999998C910.301 1109.1999999999998 910.4290000000001 1109.1999999999998 910.5520000000001 1109.2199999999998C911.2720000000002 1109.3399999999997 911.4700000000001 1109.6599999999999 911.2470000000002 1110.3799999999999C910.8970000000002 1111.4999999999998 910.2150000000001 1112.4399999999998 909.5480000000002 1113.3799999999999C908.8350000000003 1114.3799999999999 908.0720000000002 1115.35 907.3650000000002 1116.36C906.7160000000002 1117.28 906.7670000000003 1117.75 907.5740000000002 1118.55Z "
          fill="#e2e3d1" fill-opacity="1" transform="matrix(1,0,0,1,-884,-1108)"></path>
</svg>
