<svg xmlns="http://www.w3.org/2000/svg" xmlns:xlink="http://www.w3.org/1999/xlink" width="25" height="21" viewBox="0 0 25 21"><defs><path id="a" d="M1496 979.66c-.17.05-.03.42-.08.6-.11.1-.06.38-.07.6-.17.05-.03.42-.07.6-.18.05.01.46-.15.53.03.45-.17.67-.15 1.12-.16.3-.18.72-.29 1.06-.06.36-.21.64-.22 1.05-.18.27-.13.77-.29 1.05 0 .44-.14.71-.15 1.13a54.74 54.74 0 0 1-.81 4.51c-.23 1.52-.45 3.05-1.1 4.14-.13.26.05.44 0 .83-.14.16-.43.17-.52.37-.17.1-.27.28-.59.23-.47.06-.53-.31-.8-.45-.13-.27-.42-.38-.59-.6-.49-.23-.9-.54-1.4-.76-.47-.24-.95-.47-1.47-.67-.93-.5-1.99-.88-2.94-1.36-.38.11-.48.51-.81.68-.23.24-.38.56-.66.75-.43.51-.9.99-1.39 1.43-.12.33-.37.53-.52.83-.13.29-.4.44-.51.75-.49.36-.66 1.03-1.62.9-.18-.2-.52-.27-.44-.75v-1.13c-.05-.8.13-1.37.07-2.18.06-1.45.19-2.82.3-4.21.04-.3-.3-.2-.37-.38-.18-.06-.29-.2-.51-.22-.24-.24-.65-.3-.89-.53-.76-.2-1.29-.63-2.05-.83-.61-.35-1.43-.5-1.99-.9-.62-.34-1.46-.46-1.91-.98-.06-.41.17-.52.37-.67.11-.24.33-.37.66-.38.19-.16.57-.12.74-.3.29-.02.49-.14.73-.23 1.1-.22 1.94-.72 3.09-.9.16-.18.54-.14.73-.3.32 0 .47-.17.81-.15.41-.26 1.07-.26 1.47-.53.58-.08 1.05-.28 1.54-.45.27-.08.57-.11.81-.22.23-.1.56-.09.74-.23 1.08-.24 2.01-.64 3.01-.98 1.05-.28 1.88-.78 2.94-1.05.43-.23.96-.37 1.39-.6.55-.12.94-.4 1.47-.53.44-.23.88-.45 1.4-.6.15-.2.48-.21.66-.37.23-.1.39-.26.66-.3.12.02.13-.08.22-.08.41.21 1.06.18 1.33.53.07.37.24.65.22 1.13zm-20.51 6.61c-.36-.02-.51.18-.88.15-.17.2-.67.06-.81.3.61.1 1.02.42 1.62.53-.04-.4.13-.57.07-.98zm1.84-.45c-.47-.03-.67.21-1.1.23v1.35c.19.38.65.5 1.03.68-.02-.8 0-1.55.07-2.26zm1.54 3.01c-.27-.91-.12-2.35-.07-3.38-.02-.06-.06-.1-.15-.08-.29.18-.68.25-1.1.3.29.81.27 1.94.52 2.78.28.12.48.3.8.38zm2.72-4.29v1.66c.06.5.19.91.37 1.28.35-.13.52-.43.81-.6.24-.23.52-.42.73-.68.55-.4 1.02-.87 1.55-1.28.97-.89 2.05-1.66 3.08-2.48.11-.05 0-.1 0 0-.43.06-.83.3-1.24.45-.41.15-.85.24-1.26.37-.02.01 0 .08-.07.08-.11 0-.13.04-.22.07l-.95.3c-.41.14-.83.22-1.18.46.17.15.2.45.22.75-.05.5.03 1.13-.51 1.13-.65-.1-.51-1-.52-1.73-.27.07-.52.17-.81.22zm-1.91 1.8c-.01 1.02-.06 2.08.52 2.49.47-.17.71-.57 1.17-.75.03-.2-.15-.2-.29-.23-.04-.15-.16-.24-.22-.37-.21-.77-.01-1.7 0-2.64-.02-.06-.06-.08-.15-.07-.29.2-.74.24-1.1.37-.01.44-.02.87.07 1.2zm5.59 3.54c.09-.33.4-.44.51-.75.28-.12.31-.49.59-.6.19-.23.32-.53.59-.68.12-.28.46-.33.51-.68 1.64-1.65 2.98-3.62 4.49-5.4.1-.06-.01-.1 0 0-.49.12-.71.52-1.18.67-.29.3-.74.44-1.03.75-.43.16-.74.45-1.1.68-.16.13-.3.29-.52.37-.19.1-.25.34-.51.38-.3.32-.66.58-1.03.82-.27.32-.62.57-.95.83l-1.92 1.66c-.17.1-.44.1-.58.22-.5.42-.91.93-1.4 1.36-.28.16-.61.28-.81.52-.28.16-.69.2-.88.45-.3.78-.14 1.7-.29 2.71v2.56c.07.25-.23.51 0 .67.14-.23.26-.5.44-.75.02-.02.13-.05.14-.07.02-.04-.02-.12 0-.15.12-.15.31-.22.45-.38.11-.13.18-.34.29-.45.08-.08.22-.08.29-.15.39-.34.76-1 1.18-1.43.36.08.44-.15.66-.22.77-.9 1.22-2.12 2.06-2.94zm.14 2.56c.02-.24-.12-.32-.07-.6-.24.02-.32.22-.44.37.23.02.33.17.51.23zm8.9-11.06c0-.03-.03-.1-.08-.07-.15.1-.32.38-.51.6-.14.16-.58.56-.59.68-.01.14-.16.16-.22.22-.21.24-.32.46-.51.68-.1.12-.26.14-.3.3-.75.8-1.41 1.72-2.2 2.48-.68.89-1.5 1.63-2.13 2.56-.37.4-.65.9-1.03 1.28-.24.55-.85.73-1.03 1.35.15.48.37.88.51 1.36.42.1.71.33 1.11.45.22-.1.17-.48.58-.38.22.15.19.56.3.83.61.15 1 .53 1.61.68.19.2.48.3.74.45.26.13.43.36.73.45.29-.84.42-1.83.52-2.86.13-.21.31-.38.37-.68.41-1.66.69-3.44.95-5.26.26-1.85.82-3.38 1.18-5.12z"/></defs><g transform="translate(-1471 -978)"><use fill="#fff" xlink:href="#a"/></g></svg>