<svg xmlns="http://www.w3.org/2000/svg" xmlns:xlink="http://www.w3.org/1999/xlink" width="23" height="23" viewBox="0 0 23 23"><defs><path id="a" d="M865 987.5a11.5 11.5 0 1 1-23.01-.01 11.5 11.5 0 0 1 23.01.01zm-2.3 0a9.2 9.2 0 1 0-18.4 0 9.2 9.2 0 0 0 18.4 0zm-6.9-2.88a1.72 1.72 0 1 1 3.44 0 1.72 1.72 0 0 1-3.44 0zm-8.05 0a1.72 1.72 0 1 1 3.44 0 1.72 1.72 0 0 1-3.44 0zm-.13 5.18h11.76a6.32 6.32 0 0 1-11.76 0z"/></defs><g transform="translate(-842 -976)"><use fill="#ffc363" xlink:href="#a"/></g></svg>